<svg width="35" height="35" viewBox="0 0 35 35" fill="none" xmlns="http://www.w3.org/2000/svg">
<path d="M11.0506 32.3723C24.1709 32.3723 31.3455 21.5028 31.3455 12.0774C31.3455 11.7687 31.3392 11.4614 31.3253 11.1554C32.7181 10.1486 33.9287 8.89208 34.8834 7.46177C33.6053 8.02986 32.23 8.4123 30.7871 8.58475C32.2598 7.70167 33.3905 6.30472 33.9238 4.63938C32.5456 5.45641 31.0194 6.05023 29.3944 6.37078C28.0927 4.98427 26.2396 4.11719 24.1876 4.11719C20.2485 4.11719 17.0541 7.31158 17.0541 11.2493C17.0541 11.809 17.1167 12.3535 17.2391 12.8757C11.3106 12.5774 6.05387 9.73901 2.53614 5.42304C1.92355 6.47717 1.57032 7.70166 1.57032 9.00821C1.57032 11.4829 2.82958 13.6677 4.74454 14.9457C3.57429 14.9096 2.47495 14.5883 1.51399 14.0536C1.51294 14.0835 1.51295 14.1127 1.51295 14.1447C1.51295 17.5991 3.97167 20.4834 7.23559 21.137C6.63621 21.3004 6.00554 21.388 5.3547 21.388C4.89578 21.388 4.44867 21.3429 4.01408 21.2594C4.92219 24.0936 7.55545 26.156 10.6775 26.2137C8.23619 28.1273 5.1607 29.2669 1.8182 29.2669C1.24315 29.2669 0.675058 29.2342 0.116699 29.1682C3.27354 31.1916 7.02212 32.3723 11.0509 32.3723" fill="black"/>
</svg>
