<svg width="35" height="35" viewBox="0 0 35 35" fill="none" xmlns="http://www.w3.org/2000/svg">
<path d="M16.2872 24.3612L18.9949 21.6567C17.2308 21.3903 15.9795 20.7962 15.0769 19.9151C12.4103 17.2516 12.4103 13.5021 15.0564 10.8591L20.3897 5.53198C23.0564 2.86842 26.7898 2.86842 29.4564 5.53198C32.1436 8.2365 32.1231 11.945 29.4769 14.588L27.0769 17.0057C27.6308 18.317 27.8154 19.8946 27.5487 21.2264L31.9795 16.8213C36 12.8055 36.0205 7.10963 31.959 3.05284C27.8769 -1.02444 22.1949 -1.00396 18.1539 3.03236L12.5539 8.62577C8.53335 12.6416 8.51281 18.3375 12.5744 22.4148C13.4359 23.2548 14.6051 23.9309 16.2872 24.3612ZM18.7077 10.6542L16.0205 13.3587C17.7641 13.6251 19.0359 14.2192 19.918 15.1002C22.5846 17.7638 22.5846 21.5132 19.959 24.1563L14.6051 29.4834C11.9385 32.1469 8.22563 32.1264 5.53848 29.4629C2.85129 26.7789 2.87179 23.0499 5.51794 20.4273L7.93844 18.0096C7.36412 16.6984 7.17949 15.1208 7.44617 13.7685L3.03589 18.1941C-1.00513 22.2099 -1.02564 27.9057 3.05643 31.9625C7.11794 36.0193 12.8205 35.9988 16.841 31.983L22.441 26.3896C26.4615 22.3533 26.4821 16.6574 22.4205 12.6006C21.5795 11.7606 20.3897 11.0844 18.7077 10.6542Z" fill="black"/>
</svg>
